<svg width="1920" height="1080" viewBox="0 0 1920 1080" fill="none" xmlns="http://www.w3.org/2000/svg">
<rect width="1920" height="1080" fill="#F5F5F5"/>
<rect width="1920" height="1080" fill="white"/>
<g filter="url(#filter0_d_0_1)">
<rect x="64" y="640" width="320" height="192" fill="#D9D9D9"/>
<rect x="64.5" y="640.5" width="319" height="191" stroke="black"/>
</g>
<g filter="url(#filter1_d_0_1)">
<rect x="896" y="640" width="320" height="192" fill="#D9D9D9"/>
<rect x="896.5" y="640.5" width="319" height="191" stroke="black"/>
</g>
<g filter="url(#filter2_d_0_1)">
<rect x="64.5" y="321.5" width="319" height="191" stroke="black" shape-rendering="crispEdges"/>
</g>
<g filter="url(#filter3_d_0_1)">
<rect x="896.5" y="320.5" width="319" height="191" stroke="black" shape-rendering="crispEdges"/>
</g>
<g filter="url(#filter4_d_0_1)">
<rect x="384" y="320" width="320" height="192" fill="black"/>
<rect x="384.5" y="320.5" width="319" height="191" stroke="black"/>
</g>
<g filter="url(#filter5_d_0_1)">
<rect x="1216" y="319" width="320" height="192" fill="black"/>
<rect x="1216.5" y="319.5" width="319" height="191" stroke="black"/>
</g>
<path d="M188.727 730.545L182.273 748H179.545L173.091 730.545H176L180.818 744.455H181L185.818 730.545H188.727ZM196.872 748.409C195.766 748.409 194.762 748.201 193.861 747.784C192.959 747.36 192.243 746.75 191.713 745.955C191.183 745.152 190.918 744.182 190.918 743.045C190.918 742.045 191.115 741.235 191.509 740.614C191.902 739.985 192.429 739.492 193.088 739.136C193.747 738.78 194.474 738.515 195.27 738.341C196.073 738.159 196.88 738.015 197.69 737.909C198.751 737.773 199.611 737.67 200.27 737.602C200.937 737.527 201.421 737.402 201.724 737.227C202.035 737.053 202.19 736.75 202.19 736.318V736.227C202.19 735.106 201.884 734.235 201.27 733.614C200.664 732.992 199.743 732.682 198.509 732.682C197.228 732.682 196.224 732.962 195.497 733.523C194.77 734.083 194.259 734.682 193.963 735.318L191.418 734.409C191.872 733.348 192.478 732.523 193.236 731.932C194.001 731.333 194.834 730.917 195.736 730.682C196.645 730.439 197.539 730.318 198.418 730.318C198.978 730.318 199.622 730.386 200.349 730.523C201.084 730.652 201.793 730.92 202.474 731.33C203.164 731.739 203.736 732.356 204.19 733.182C204.645 734.008 204.872 735.114 204.872 736.5V748H202.19V745.636H202.054C201.872 746.015 201.569 746.42 201.145 746.852C200.721 747.284 200.156 747.652 199.452 747.955C198.747 748.258 197.887 748.409 196.872 748.409ZM197.281 746C198.342 746 199.236 745.792 199.963 745.375C200.698 744.958 201.251 744.42 201.622 743.761C202.001 743.102 202.19 742.409 202.19 741.682V739.227C202.077 739.364 201.827 739.489 201.44 739.602C201.062 739.708 200.622 739.803 200.122 739.886C199.63 739.962 199.149 740.03 198.679 740.091C198.217 740.144 197.842 740.189 197.554 740.227C196.857 740.318 196.205 740.466 195.599 740.67C195.001 740.867 194.516 741.167 194.145 741.568C193.781 741.962 193.599 742.5 193.599 743.182C193.599 744.114 193.944 744.818 194.634 745.295C195.33 745.765 196.213 746 197.281 746ZM212.449 724.727V748H209.767V724.727H212.449ZM228.361 740.864V730.545H231.043V748H228.361V745.045H228.179C227.77 745.932 227.134 746.686 226.27 747.307C225.406 747.92 224.315 748.227 222.997 748.227C221.906 748.227 220.937 747.989 220.088 747.511C219.24 747.027 218.573 746.299 218.088 745.33C217.603 744.352 217.361 743.121 217.361 741.636V730.545H220.043V741.455C220.043 742.727 220.399 743.742 221.111 744.5C221.83 745.258 222.747 745.636 223.861 745.636C224.527 745.636 225.205 745.466 225.895 745.125C226.592 744.784 227.175 744.261 227.645 743.557C228.122 742.852 228.361 741.955 228.361 740.864ZM243.273 748.364C241.591 748.364 240.14 747.992 238.92 747.25C237.708 746.5 236.773 745.455 236.114 744.114C235.462 742.765 235.136 741.197 235.136 739.409C235.136 737.621 235.462 736.045 236.114 734.682C236.773 733.311 237.689 732.242 238.864 731.477C240.045 730.705 241.424 730.318 243 730.318C243.909 730.318 244.807 730.47 245.693 730.773C246.58 731.076 247.386 731.568 248.114 732.25C248.841 732.924 249.42 733.818 249.852 734.932C250.284 736.045 250.5 737.417 250.5 739.045V740.182H237.045V737.864H247.773C247.773 736.879 247.576 736 247.182 735.227C246.795 734.455 246.242 733.845 245.523 733.398C244.811 732.951 243.97 732.727 243 732.727C241.932 732.727 241.008 732.992 240.227 733.523C239.455 734.045 238.86 734.727 238.443 735.568C238.027 736.409 237.818 737.311 237.818 738.273V739.818C237.818 741.136 238.045 742.254 238.5 743.17C238.962 744.08 239.602 744.773 240.42 745.25C241.239 745.72 242.189 745.955 243.273 745.955C243.977 745.955 244.614 745.856 245.182 745.659C245.758 745.455 246.254 745.152 246.67 744.75C247.087 744.341 247.409 743.833 247.636 743.227L250.227 743.955C249.955 744.833 249.496 745.606 248.852 746.273C248.208 746.932 247.413 747.447 246.466 747.818C245.519 748.182 244.455 748.364 243.273 748.364ZM271.716 724.727V748H268.898V727.682H268.761L263.08 731.455V728.591L268.898 724.727H271.716Z" fill="black"/>
<path d="M1018.48 730.545L1012.02 748H1009.3L1002.84 730.545H1005.75L1010.57 744.455H1010.75L1015.57 730.545H1018.48ZM1026.62 748.409C1025.52 748.409 1024.51 748.201 1023.61 747.784C1022.71 747.36 1021.99 746.75 1021.46 745.955C1020.93 745.152 1020.67 744.182 1020.67 743.045C1020.67 742.045 1020.86 741.235 1021.26 740.614C1021.65 739.985 1022.18 739.492 1022.84 739.136C1023.5 738.78 1024.22 738.515 1025.02 738.341C1025.82 738.159 1026.63 738.015 1027.44 737.909C1028.5 737.773 1029.36 737.67 1030.02 737.602C1030.69 737.527 1031.17 737.402 1031.47 737.227C1031.79 737.053 1031.94 736.75 1031.94 736.318V736.227C1031.94 735.106 1031.63 734.235 1031.02 733.614C1030.41 732.992 1029.49 732.682 1028.26 732.682C1026.98 732.682 1025.97 732.962 1025.25 733.523C1024.52 734.083 1024.01 734.682 1023.71 735.318L1021.17 734.409C1021.62 733.348 1022.23 732.523 1022.99 731.932C1023.75 731.333 1024.58 730.917 1025.49 730.682C1026.39 730.439 1027.29 730.318 1028.17 730.318C1028.73 730.318 1029.37 730.386 1030.1 730.523C1030.83 730.652 1031.54 730.92 1032.22 731.33C1032.91 731.739 1033.49 732.356 1033.94 733.182C1034.39 734.008 1034.62 735.114 1034.62 736.5V748H1031.94V745.636H1031.8C1031.62 746.015 1031.32 746.42 1030.89 746.852C1030.47 747.284 1029.91 747.652 1029.2 747.955C1028.5 748.258 1027.64 748.409 1026.62 748.409ZM1027.03 746C1028.09 746 1028.99 745.792 1029.71 745.375C1030.45 744.958 1031 744.42 1031.37 743.761C1031.75 743.102 1031.94 742.409 1031.94 741.682V739.227C1031.83 739.364 1031.58 739.489 1031.19 739.602C1030.81 739.708 1030.37 739.803 1029.87 739.886C1029.38 739.962 1028.9 740.03 1028.43 740.091C1027.97 740.144 1027.59 740.189 1027.3 740.227C1026.61 740.318 1025.96 740.466 1025.35 740.67C1024.75 740.867 1024.27 741.167 1023.89 741.568C1023.53 741.962 1023.35 742.5 1023.35 743.182C1023.35 744.114 1023.69 744.818 1024.38 745.295C1025.08 745.765 1025.96 746 1027.03 746ZM1042.2 724.727V748H1039.52V724.727H1042.2ZM1058.11 740.864V730.545H1060.79V748H1058.11V745.045H1057.93C1057.52 745.932 1056.88 746.686 1056.02 747.307C1055.16 747.92 1054.07 748.227 1052.75 748.227C1051.66 748.227 1050.69 747.989 1049.84 747.511C1048.99 747.027 1048.32 746.299 1047.84 745.33C1047.35 744.352 1047.11 743.121 1047.11 741.636V730.545H1049.79V741.455C1049.79 742.727 1050.15 743.742 1050.86 744.5C1051.58 745.258 1052.5 745.636 1053.61 745.636C1054.28 745.636 1054.96 745.466 1055.64 745.125C1056.34 744.784 1056.93 744.261 1057.39 743.557C1057.87 742.852 1058.11 741.955 1058.11 740.864ZM1073.02 748.364C1071.34 748.364 1069.89 747.992 1068.67 747.25C1067.46 746.5 1066.52 745.455 1065.86 744.114C1065.21 742.765 1064.89 741.197 1064.89 739.409C1064.89 737.621 1065.21 736.045 1065.86 734.682C1066.52 733.311 1067.44 732.242 1068.61 731.477C1069.8 730.705 1071.17 730.318 1072.75 730.318C1073.66 730.318 1074.56 730.47 1075.44 730.773C1076.33 731.076 1077.14 731.568 1077.86 732.25C1078.59 732.924 1079.17 733.818 1079.6 734.932C1080.03 736.045 1080.25 737.417 1080.25 739.045V740.182H1066.8V737.864H1077.52C1077.52 736.879 1077.33 736 1076.93 735.227C1076.55 734.455 1075.99 733.845 1075.27 733.398C1074.56 732.951 1073.72 732.727 1072.75 732.727C1071.68 732.727 1070.76 732.992 1069.98 733.523C1069.2 734.045 1068.61 734.727 1068.19 735.568C1067.78 736.409 1067.57 737.311 1067.57 738.273V739.818C1067.57 741.136 1067.8 742.254 1068.25 743.17C1068.71 744.08 1069.35 744.773 1070.17 745.25C1070.99 745.72 1071.94 745.955 1073.02 745.955C1073.73 745.955 1074.36 745.856 1074.93 745.659C1075.51 745.455 1076 745.152 1076.42 744.75C1076.84 744.341 1077.16 743.833 1077.39 743.227L1079.98 743.955C1079.7 744.833 1079.25 745.606 1078.6 746.273C1077.96 746.932 1077.16 747.447 1076.22 747.818C1075.27 748.182 1074.2 748.364 1073.02 748.364ZM1093.28 748V745.955L1100.97 737.545C1101.87 736.561 1102.61 735.705 1103.19 734.977C1103.78 734.242 1104.21 733.553 1104.49 732.909C1104.78 732.258 1104.92 731.576 1104.92 730.864C1104.92 730.045 1104.72 729.337 1104.33 728.739C1103.94 728.14 1103.41 727.678 1102.74 727.352C1102.06 727.027 1101.31 726.864 1100.47 726.864C1099.57 726.864 1098.79 727.049 1098.12 727.42C1097.47 727.784 1096.95 728.295 1096.59 728.955C1096.23 729.614 1096.06 730.386 1096.06 731.273H1093.38C1093.38 729.909 1093.69 728.712 1094.32 727.682C1094.95 726.652 1095.8 725.848 1096.89 725.273C1097.98 724.697 1099.2 724.409 1100.56 724.409C1101.92 724.409 1103.13 724.697 1104.18 725.273C1105.23 725.848 1106.06 726.625 1106.66 727.602C1107.26 728.58 1107.56 729.667 1107.56 730.864C1107.56 731.72 1107.4 732.557 1107.09 733.375C1106.79 734.186 1106.26 735.091 1105.5 736.091C1104.75 737.083 1103.71 738.295 1102.38 739.727L1097.15 745.318V745.5H1107.97V748H1093.28Z" fill="black"/>
<path d="M174.993 411.545V413.818H165.584V411.545H174.993ZM168.402 429V409.136C168.402 408.136 168.637 407.303 169.107 406.636C169.576 405.97 170.186 405.47 170.936 405.136C171.686 404.803 172.478 404.636 173.311 404.636C173.97 404.636 174.508 404.689 174.925 404.795C175.341 404.902 175.652 405 175.857 405.091L175.084 407.409C174.947 407.364 174.758 407.307 174.516 407.239C174.281 407.17 173.97 407.136 173.584 407.136C172.697 407.136 172.057 407.36 171.663 407.807C171.277 408.254 171.084 408.909 171.084 409.773V429H168.402ZM178.751 429V411.545H181.433V429H178.751ZM180.115 408.636C179.592 408.636 179.142 408.458 178.763 408.102C178.392 407.746 178.206 407.318 178.206 406.818C178.206 406.318 178.392 405.89 178.763 405.534C179.142 405.178 179.592 405 180.115 405C180.638 405 181.085 405.178 181.456 405.534C181.835 405.89 182.024 406.318 182.024 406.818C182.024 407.318 181.835 407.746 181.456 408.102C181.085 408.458 180.638 408.636 180.115 408.636ZM186.345 429V411.545H188.936V414.182H189.118C189.436 413.318 190.012 412.617 190.845 412.08C191.679 411.542 192.618 411.273 193.663 411.273C193.86 411.273 194.107 411.277 194.402 411.284C194.697 411.292 194.921 411.303 195.072 411.318V414.045C194.982 414.023 194.773 413.989 194.447 413.943C194.129 413.89 193.792 413.864 193.436 413.864C192.588 413.864 191.83 414.042 191.163 414.398C190.504 414.746 189.982 415.231 189.595 415.852C189.216 416.466 189.027 417.167 189.027 417.955V429H186.345ZM210.615 415.455L208.206 416.136C208.054 415.735 207.831 415.345 207.536 414.966C207.248 414.58 206.854 414.261 206.354 414.011C205.854 413.761 205.214 413.636 204.433 413.636C203.365 413.636 202.475 413.883 201.763 414.375C201.058 414.86 200.706 415.477 200.706 416.227C200.706 416.894 200.948 417.42 201.433 417.807C201.918 418.193 202.676 418.515 203.706 418.773L206.297 419.409C207.857 419.788 209.02 420.367 209.786 421.148C210.551 421.92 210.933 422.917 210.933 424.136C210.933 425.136 210.645 426.03 210.07 426.818C209.501 427.606 208.706 428.227 207.683 428.682C206.661 429.136 205.471 429.364 204.115 429.364C202.335 429.364 200.861 428.977 199.695 428.205C198.528 427.432 197.789 426.303 197.479 424.818L200.024 424.182C200.267 425.121 200.725 425.826 201.399 426.295C202.081 426.765 202.971 427 204.07 427C205.32 427 206.312 426.735 207.047 426.205C207.789 425.667 208.161 425.023 208.161 424.273C208.161 423.667 207.948 423.159 207.524 422.75C207.1 422.333 206.448 422.023 205.57 421.818L202.661 421.136C201.062 420.758 199.888 420.17 199.138 419.375C198.395 418.572 198.024 417.568 198.024 416.364C198.024 415.379 198.301 414.508 198.854 413.75C199.414 412.992 200.176 412.398 201.138 411.966C202.107 411.534 203.206 411.318 204.433 411.318C206.161 411.318 207.517 411.697 208.501 412.455C209.494 413.212 210.198 414.212 210.615 415.455ZM222.561 411.545V413.818H213.516V411.545H222.561ZM216.152 407.364H218.834V424C218.834 424.758 218.944 425.326 219.163 425.705C219.391 426.076 219.679 426.326 220.027 426.455C220.383 426.576 220.758 426.636 221.152 426.636C221.447 426.636 221.69 426.621 221.879 426.591C222.069 426.553 222.22 426.523 222.334 426.5L222.879 428.909C222.697 428.977 222.444 429.045 222.118 429.114C221.792 429.189 221.379 429.227 220.879 429.227C220.122 429.227 219.379 429.064 218.652 428.739C217.932 428.413 217.334 427.917 216.857 427.25C216.387 426.583 216.152 425.742 216.152 424.727V407.364ZM236.55 419.182C236.55 416.318 236.921 413.686 237.663 411.284C238.413 408.875 239.482 406.659 240.868 404.636H243.232C242.686 405.386 242.175 406.311 241.697 407.409C241.228 408.5 240.815 409.701 240.459 411.011C240.103 412.314 239.822 413.663 239.618 415.057C239.421 416.451 239.322 417.826 239.322 419.182C239.322 420.985 239.497 422.814 239.845 424.67C240.194 426.527 240.663 428.25 241.254 429.841C241.845 431.432 242.504 432.727 243.232 433.727H240.868C239.482 431.705 238.413 429.492 237.663 427.091C236.921 424.682 236.55 422.045 236.55 419.182ZM250.643 411.545L253.643 418.682L259.007 411.545H262.098L255.007 420.273L259.189 429H256.098L253.053 422.227L247.734 429H244.643L251.643 420.273L247.553 411.545H250.643ZM264.879 433L266.788 421.523H266.675L262.675 423.909L263.084 421.5L267.197 419.045H269.561L267.243 433H264.879ZM279.822 419.182C279.822 422.045 279.447 424.682 278.697 427.091C277.955 429.492 276.891 431.705 275.504 433.727H273.141C273.686 432.977 274.194 432.053 274.663 430.955C275.141 429.864 275.557 428.667 275.913 427.364C276.269 426.053 276.546 424.701 276.743 423.307C276.947 421.905 277.05 420.53 277.05 419.182C277.05 417.379 276.875 415.549 276.527 413.693C276.179 411.837 275.709 410.114 275.118 408.523C274.527 406.932 273.868 405.636 273.141 404.636H275.504C276.891 406.659 277.955 408.875 278.697 411.284C279.447 413.686 279.822 416.318 279.822 419.182Z" fill="black"/>
<path d="M1005.1 410.545V412.818H995.693V410.545H1005.1ZM998.511 428V408.136C998.511 407.136 998.746 406.303 999.216 405.636C999.686 404.97 1000.3 404.47 1001.05 404.136C1001.8 403.803 1002.59 403.636 1003.42 403.636C1004.08 403.636 1004.62 403.689 1005.03 403.795C1005.45 403.902 1005.76 404 1005.97 404.091L1005.19 406.409C1005.06 406.364 1004.87 406.307 1004.62 406.239C1004.39 406.17 1004.08 406.136 1003.69 406.136C1002.81 406.136 1002.17 406.36 1001.77 406.807C1001.39 407.254 1001.19 407.909 1001.19 408.773V428H998.511ZM1008.86 428V410.545H1011.54V428H1008.86ZM1010.22 407.636C1009.7 407.636 1009.25 407.458 1008.87 407.102C1008.5 406.746 1008.32 406.318 1008.32 405.818C1008.32 405.318 1008.5 404.89 1008.87 404.534C1009.25 404.178 1009.7 404 1010.22 404C1010.75 404 1011.19 404.178 1011.57 404.534C1011.94 404.89 1012.13 405.318 1012.13 405.818C1012.13 406.318 1011.94 406.746 1011.57 407.102C1011.19 407.458 1010.75 407.636 1010.22 407.636ZM1016.45 428V410.545H1019.05V413.182H1019.23C1019.55 412.318 1020.12 411.617 1020.95 411.08C1021.79 410.542 1022.73 410.273 1023.77 410.273C1023.97 410.273 1024.22 410.277 1024.51 410.284C1024.81 410.292 1025.03 410.303 1025.18 410.318V413.045C1025.09 413.023 1024.88 412.989 1024.56 412.943C1024.24 412.89 1023.9 412.864 1023.55 412.864C1022.7 412.864 1021.94 413.042 1021.27 413.398C1020.61 413.746 1020.09 414.231 1019.7 414.852C1019.33 415.466 1019.14 416.167 1019.14 416.955V428H1016.45ZM1040.72 414.455L1038.32 415.136C1038.16 414.735 1037.94 414.345 1037.64 413.966C1037.36 413.58 1036.96 413.261 1036.46 413.011C1035.96 412.761 1035.32 412.636 1034.54 412.636C1033.47 412.636 1032.58 412.883 1031.87 413.375C1031.17 413.86 1030.82 414.477 1030.82 415.227C1030.82 415.894 1031.06 416.42 1031.54 416.807C1032.03 417.193 1032.79 417.515 1033.82 417.773L1036.41 418.409C1037.97 418.788 1039.13 419.367 1039.89 420.148C1040.66 420.92 1041.04 421.917 1041.04 423.136C1041.04 424.136 1040.75 425.03 1040.18 425.818C1039.61 426.606 1038.82 427.227 1037.79 427.682C1036.77 428.136 1035.58 428.364 1034.22 428.364C1032.44 428.364 1030.97 427.977 1029.8 427.205C1028.64 426.432 1027.9 425.303 1027.59 423.818L1030.13 423.182C1030.38 424.121 1030.83 424.826 1031.51 425.295C1032.19 425.765 1033.08 426 1034.18 426C1035.43 426 1036.42 425.735 1037.16 425.205C1037.9 424.667 1038.27 424.023 1038.27 423.273C1038.27 422.667 1038.06 422.159 1037.63 421.75C1037.21 421.333 1036.56 421.023 1035.68 420.818L1032.77 420.136C1031.17 419.758 1030 419.17 1029.25 418.375C1028.5 417.572 1028.13 416.568 1028.13 415.364C1028.13 414.379 1028.41 413.508 1028.96 412.75C1029.52 411.992 1030.29 411.398 1031.25 410.966C1032.22 410.534 1033.32 410.318 1034.54 410.318C1036.27 410.318 1037.63 410.697 1038.61 411.455C1039.6 412.212 1040.31 413.212 1040.72 414.455ZM1052.67 410.545V412.818H1043.62V410.545H1052.67ZM1046.26 406.364H1048.94V423C1048.94 423.758 1049.05 424.326 1049.27 424.705C1049.5 425.076 1049.79 425.326 1050.14 425.455C1050.49 425.576 1050.87 425.636 1051.26 425.636C1051.56 425.636 1051.8 425.621 1051.99 425.591C1052.18 425.553 1052.33 425.523 1052.44 425.5L1052.99 427.909C1052.81 427.977 1052.55 428.045 1052.23 428.114C1051.9 428.189 1051.49 428.227 1050.99 428.227C1050.23 428.227 1049.49 428.064 1048.76 427.739C1048.04 427.413 1047.44 426.917 1046.97 426.25C1046.5 425.583 1046.26 424.742 1046.26 423.727V406.364ZM1066.66 418.182C1066.66 415.318 1067.03 412.686 1067.77 410.284C1068.52 407.875 1069.59 405.659 1070.98 403.636H1073.34C1072.8 404.386 1072.28 405.311 1071.81 406.409C1071.34 407.5 1070.92 408.701 1070.57 410.011C1070.21 411.314 1069.93 412.663 1069.73 414.057C1069.53 415.451 1069.43 416.826 1069.43 418.182C1069.43 419.985 1069.61 421.814 1069.95 423.67C1070.3 425.527 1070.77 427.25 1071.36 428.841C1071.95 430.432 1072.61 431.727 1073.34 432.727H1070.98C1069.59 430.705 1068.52 428.492 1067.77 426.091C1067.03 423.682 1066.66 421.045 1066.66 418.182ZM1080.75 410.545L1083.75 417.682L1089.12 410.545H1092.21L1085.12 419.273L1089.3 428H1086.21L1083.16 421.227L1077.84 428H1074.75L1081.75 419.273L1077.66 410.545H1080.75ZM1091.58 432L1091.85 430.227L1097.99 425.5C1098.63 425.015 1099.16 424.583 1099.58 424.205C1100.01 423.826 1100.34 423.466 1100.58 423.125C1100.82 422.784 1100.97 422.424 1101.03 422.045C1101.15 421.364 1100.98 420.822 1100.53 420.42C1100.09 420.019 1099.47 419.818 1098.67 419.818C1097.9 419.818 1097.21 420.03 1096.6 420.455C1096 420.879 1095.65 421.455 1095.53 422.182H1093.12C1093.33 420.932 1093.96 419.902 1095.02 419.091C1096.08 418.273 1097.38 417.864 1098.9 417.864C1099.93 417.864 1100.79 418.053 1101.48 418.432C1102.17 418.803 1102.67 419.311 1102.98 419.955C1103.29 420.591 1103.38 421.303 1103.26 422.091C1103.17 422.667 1102.97 423.208 1102.67 423.716C1102.37 424.223 1101.91 424.761 1101.31 425.33C1100.7 425.898 1099.9 426.561 1098.9 427.318L1095.44 429.909V430H1102.4L1102.08 432H1091.58ZM1113.71 418.182C1113.71 421.045 1113.34 423.682 1112.59 426.091C1111.85 428.492 1110.78 430.705 1109.39 432.727H1107.03C1107.58 431.977 1108.08 431.053 1108.55 429.955C1109.03 428.864 1109.45 427.667 1109.8 426.364C1110.16 425.053 1110.44 423.701 1110.63 422.307C1110.84 420.905 1110.94 419.53 1110.94 418.182C1110.94 416.379 1110.77 414.549 1110.42 412.693C1110.07 410.837 1109.6 409.114 1109.01 407.523C1108.42 405.932 1107.76 404.636 1107.03 403.636H1109.39C1110.78 405.659 1111.85 407.875 1112.59 410.284C1113.34 412.686 1113.71 415.318 1113.71 418.182Z" fill="black"/>
<path d="M517.283 428V410.545H519.874V413.182H520.055C520.374 412.318 520.949 411.617 521.783 411.08C522.616 410.542 523.555 410.273 524.601 410.273C524.798 410.273 525.044 410.277 525.339 410.284C525.635 410.292 525.858 410.303 526.01 410.318V413.045C525.919 413.023 525.711 412.989 525.385 412.943C525.067 412.89 524.73 412.864 524.374 412.864C523.525 412.864 522.768 413.042 522.101 413.398C521.442 413.746 520.919 414.231 520.533 414.852C520.154 415.466 519.964 416.167 519.964 416.955V428H517.283ZM535.976 428.364C534.294 428.364 532.843 427.992 531.624 427.25C530.411 426.5 529.476 425.455 528.817 424.114C528.165 422.765 527.839 421.197 527.839 419.409C527.839 417.621 528.165 416.045 528.817 414.682C529.476 413.311 530.393 412.242 531.567 411.477C532.749 410.705 534.127 410.318 535.703 410.318C536.612 410.318 537.51 410.47 538.396 410.773C539.283 411.076 540.089 411.568 540.817 412.25C541.544 412.924 542.124 413.818 542.555 414.932C542.987 416.045 543.203 417.417 543.203 419.045V420.182H529.749V417.864H540.476C540.476 416.879 540.279 416 539.885 415.227C539.499 414.455 538.946 413.845 538.226 413.398C537.514 412.951 536.673 412.727 535.703 412.727C534.635 412.727 533.711 412.992 532.93 413.523C532.158 414.045 531.563 414.727 531.146 415.568C530.73 416.409 530.521 417.311 530.521 418.273V419.818C530.521 421.136 530.749 422.254 531.203 423.17C531.665 424.08 532.305 424.773 533.124 425.25C533.942 425.72 534.893 425.955 535.976 425.955C536.68 425.955 537.317 425.856 537.885 425.659C538.461 425.455 538.957 425.152 539.374 424.75C539.79 424.341 540.112 423.833 540.339 423.227L542.93 423.955C542.658 424.833 542.199 425.606 541.555 426.273C540.911 426.932 540.116 427.447 539.169 427.818C538.222 428.182 537.158 428.364 535.976 428.364ZM559.646 414.455L557.237 415.136C557.086 414.735 556.862 414.345 556.567 413.966C556.279 413.58 555.885 413.261 555.385 413.011C554.885 412.761 554.245 412.636 553.464 412.636C552.396 412.636 551.506 412.883 550.794 413.375C550.089 413.86 549.737 414.477 549.737 415.227C549.737 415.894 549.98 416.42 550.464 416.807C550.949 417.193 551.707 417.515 552.737 417.773L555.328 418.409C556.889 418.788 558.052 419.367 558.817 420.148C559.582 420.92 559.964 421.917 559.964 423.136C559.964 424.136 559.677 425.03 559.101 425.818C558.533 426.606 557.737 427.227 556.714 427.682C555.692 428.136 554.502 428.364 553.146 428.364C551.366 428.364 549.893 427.977 548.726 427.205C547.559 426.432 546.821 425.303 546.51 423.818L549.055 423.182C549.298 424.121 549.756 424.826 550.43 425.295C551.112 425.765 552.002 426 553.101 426C554.351 426 555.343 425.735 556.078 425.205C556.821 424.667 557.192 424.023 557.192 423.273C557.192 422.667 556.98 422.159 556.555 421.75C556.131 421.333 555.48 421.023 554.601 420.818L551.692 420.136C550.093 419.758 548.919 419.17 548.169 418.375C547.427 417.572 547.055 416.568 547.055 415.364C547.055 414.379 547.332 413.508 547.885 412.75C548.446 411.992 549.207 411.398 550.169 410.966C551.139 410.534 552.237 410.318 553.464 410.318C555.192 410.318 556.548 410.697 557.533 411.455C558.525 412.212 559.23 413.212 559.646 414.455ZM571.592 410.545V412.818H562.547V410.545H571.592ZM565.183 406.364H567.865V423C567.865 423.758 567.975 424.326 568.195 424.705C568.422 425.076 568.71 425.326 569.058 425.455C569.414 425.576 569.789 425.636 570.183 425.636C570.479 425.636 570.721 425.621 570.911 425.591C571.1 425.553 571.251 425.523 571.365 425.5L571.911 427.909C571.729 427.977 571.475 428.045 571.149 428.114C570.823 428.189 570.411 428.227 569.911 428.227C569.153 428.227 568.411 428.064 567.683 427.739C566.964 427.413 566.365 426.917 565.888 426.25C565.418 425.583 565.183 424.742 565.183 423.727V406.364Z" fill="white"/>
<path d="M1349.28 427V409.545H1351.87V412.182H1352.06C1352.37 411.318 1352.95 410.617 1353.78 410.08C1354.62 409.542 1355.56 409.273 1356.6 409.273C1356.8 409.273 1357.04 409.277 1357.34 409.284C1357.63 409.292 1357.86 409.303 1358.01 409.318V412.045C1357.92 412.023 1357.71 411.989 1357.38 411.943C1357.07 411.89 1356.73 411.864 1356.37 411.864C1355.53 411.864 1354.77 412.042 1354.1 412.398C1353.44 412.746 1352.92 413.231 1352.53 413.852C1352.15 414.466 1351.96 415.167 1351.96 415.955V427H1349.28ZM1367.98 427.364C1366.29 427.364 1364.84 426.992 1363.62 426.25C1362.41 425.5 1361.48 424.455 1360.82 423.114C1360.17 421.765 1359.84 420.197 1359.84 418.409C1359.84 416.621 1360.17 415.045 1360.82 413.682C1361.48 412.311 1362.39 411.242 1363.57 410.477C1364.75 409.705 1366.13 409.318 1367.7 409.318C1368.61 409.318 1369.51 409.47 1370.4 409.773C1371.28 410.076 1372.09 410.568 1372.82 411.25C1373.54 411.924 1374.12 412.818 1374.56 413.932C1374.99 415.045 1375.2 416.417 1375.2 418.045V419.182H1361.75V416.864H1372.48C1372.48 415.879 1372.28 415 1371.88 414.227C1371.5 413.455 1370.95 412.845 1370.23 412.398C1369.51 411.951 1368.67 411.727 1367.7 411.727C1366.63 411.727 1365.71 411.992 1364.93 412.523C1364.16 413.045 1363.56 413.727 1363.15 414.568C1362.73 415.409 1362.52 416.311 1362.52 417.273V418.818C1362.52 420.136 1362.75 421.254 1363.2 422.17C1363.67 423.08 1364.31 423.773 1365.12 424.25C1365.94 424.72 1366.89 424.955 1367.98 424.955C1368.68 424.955 1369.32 424.856 1369.88 424.659C1370.46 424.455 1370.96 424.152 1371.37 423.75C1371.79 423.341 1372.11 422.833 1372.34 422.227L1374.93 422.955C1374.66 423.833 1374.2 424.606 1373.56 425.273C1372.91 425.932 1372.12 426.447 1371.17 426.818C1370.22 427.182 1369.16 427.364 1367.98 427.364ZM1391.65 413.455L1389.24 414.136C1389.09 413.735 1388.86 413.345 1388.57 412.966C1388.28 412.58 1387.88 412.261 1387.38 412.011C1386.88 411.761 1386.24 411.636 1385.46 411.636C1384.4 411.636 1383.51 411.883 1382.79 412.375C1382.09 412.86 1381.74 413.477 1381.74 414.227C1381.74 414.894 1381.98 415.42 1382.46 415.807C1382.95 416.193 1383.71 416.515 1384.74 416.773L1387.33 417.409C1388.89 417.788 1390.05 418.367 1390.82 419.148C1391.58 419.92 1391.96 420.917 1391.96 422.136C1391.96 423.136 1391.68 424.03 1391.1 424.818C1390.53 425.606 1389.74 426.227 1388.71 426.682C1387.69 427.136 1386.5 427.364 1385.15 427.364C1383.37 427.364 1381.89 426.977 1380.73 426.205C1379.56 425.432 1378.82 424.303 1378.51 422.818L1381.06 422.182C1381.3 423.121 1381.76 423.826 1382.43 424.295C1383.11 424.765 1384 425 1385.1 425C1386.35 425 1387.34 424.735 1388.08 424.205C1388.82 423.667 1389.19 423.023 1389.19 422.273C1389.19 421.667 1388.98 421.159 1388.56 420.75C1388.13 420.333 1387.48 420.023 1386.6 419.818L1383.69 419.136C1382.09 418.758 1380.92 418.17 1380.17 417.375C1379.43 416.572 1379.06 415.568 1379.06 414.364C1379.06 413.379 1379.33 412.508 1379.88 411.75C1380.45 410.992 1381.21 410.398 1382.17 409.966C1383.14 409.534 1384.24 409.318 1385.46 409.318C1387.19 409.318 1388.55 409.697 1389.53 410.455C1390.53 411.212 1391.23 412.212 1391.65 413.455ZM1403.59 409.545V411.818H1394.55V409.545H1403.59ZM1397.18 405.364H1399.87V422C1399.87 422.758 1399.97 423.326 1400.19 423.705C1400.42 424.076 1400.71 424.326 1401.06 424.455C1401.41 424.576 1401.79 424.636 1402.18 424.636C1402.48 424.636 1402.72 424.621 1402.91 424.591C1403.1 424.553 1403.25 424.523 1403.37 424.5L1403.91 426.909C1403.73 426.977 1403.47 427.045 1403.15 427.114C1402.82 427.189 1402.41 427.227 1401.91 427.227C1401.15 427.227 1400.41 427.064 1399.68 426.739C1398.96 426.413 1398.37 425.917 1397.89 425.25C1397.42 424.583 1397.18 423.742 1397.18 422.727V405.364Z" fill="white"/>
<path d="M224 640L258.641 580H189.359L224 640ZM224 586H230L230 513H224H218L218 586H224Z" fill="black"/>
<path d="M896 417L836 382.359V451.641L896 417ZM705 417V423H842V417V411H705V417Z" fill="black"/>
<path d="M1728 415L1668 380.359V449.641L1728 415ZM1537 415V421H1674V415V409H1537V415Z" fill="black"/>
<path d="M1056 640L1090.64 580H1021.36L1056 640ZM1056 586H1062V513H1056H1050V586H1056Z" fill="black"/>
<rect x="1728" y="320" width="128" height="191" fill="black"/>
<path d="M1754.09 429.364C1752.4 429.364 1750.95 428.992 1749.73 428.25C1748.52 427.5 1747.59 426.455 1746.93 425.114C1746.27 423.765 1745.95 422.197 1745.95 420.409C1745.95 418.621 1746.27 417.045 1746.93 415.682C1747.59 414.311 1748.5 413.242 1749.68 412.477C1750.86 411.705 1752.24 411.318 1753.81 411.318C1754.72 411.318 1755.62 411.47 1756.51 411.773C1757.39 412.076 1758.2 412.568 1758.93 413.25C1759.65 413.924 1760.23 414.818 1760.66 415.932C1761.1 417.045 1761.31 418.417 1761.31 420.045V421.182H1747.86V418.864H1758.59C1758.59 417.879 1758.39 417 1757.99 416.227C1757.61 415.455 1757.05 414.845 1756.34 414.398C1755.62 413.951 1754.78 413.727 1753.81 413.727C1752.74 413.727 1751.82 413.992 1751.04 414.523C1750.27 415.045 1749.67 415.727 1749.26 416.568C1748.84 417.409 1748.63 418.311 1748.63 419.273V420.818C1748.63 422.136 1748.86 423.254 1749.31 424.17C1749.77 425.08 1750.41 425.773 1751.23 426.25C1752.05 426.72 1753 426.955 1754.09 426.955C1754.79 426.955 1755.43 426.856 1755.99 426.659C1756.57 426.455 1757.07 426.152 1757.48 425.75C1757.9 425.341 1758.22 424.833 1758.45 424.227L1761.04 424.955C1760.77 425.833 1760.31 426.606 1759.66 427.273C1759.02 427.932 1758.23 428.447 1757.28 428.818C1756.33 429.182 1755.27 429.364 1754.09 429.364ZM1765.39 429V411.545H1767.98V414.273H1768.21C1768.57 413.341 1769.16 412.617 1769.97 412.102C1770.78 411.58 1771.76 411.318 1772.89 411.318C1774.04 411.318 1775 411.58 1775.77 412.102C1776.54 412.617 1777.14 413.341 1777.57 414.273H1777.76C1778.2 413.371 1778.87 412.655 1779.77 412.125C1780.66 411.587 1781.73 411.318 1782.98 411.318C1784.54 411.318 1785.82 411.807 1786.81 412.784C1787.8 413.754 1788.3 415.265 1788.3 417.318V429H1785.62V417.318C1785.62 416.03 1785.27 415.11 1784.56 414.557C1783.86 414.004 1783.03 413.727 1782.07 413.727C1780.85 413.727 1779.9 414.098 1779.22 414.841C1778.55 415.576 1778.21 416.508 1778.21 417.636V429H1775.48V417.045C1775.48 416.053 1775.16 415.254 1774.52 414.648C1773.87 414.034 1773.04 413.727 1772.03 413.727C1771.33 413.727 1770.68 413.913 1770.07 414.284C1769.48 414.655 1768.99 415.17 1768.62 415.83C1768.26 416.481 1768.07 417.235 1768.07 418.091V429H1765.39ZM1793.2 435.545V411.545H1795.8V414.318H1796.11C1796.31 414.015 1796.58 413.629 1796.93 413.159C1797.29 412.682 1797.8 412.258 1798.45 411.886C1799.12 411.508 1800.02 411.318 1801.16 411.318C1802.63 411.318 1803.92 411.686 1805.05 412.42C1806.17 413.155 1807.04 414.197 1807.67 415.545C1808.3 416.894 1808.61 418.485 1808.61 420.318C1808.61 422.167 1808.3 423.769 1807.67 425.125C1807.04 426.473 1806.17 427.519 1805.06 428.261C1803.94 428.996 1802.66 429.364 1801.2 429.364C1800.08 429.364 1799.19 429.178 1798.51 428.807C1797.84 428.428 1797.32 428 1796.95 427.523C1796.59 427.038 1796.31 426.636 1796.11 426.318H1795.89V435.545H1793.2ZM1795.84 420.273C1795.84 421.591 1796.03 422.754 1796.42 423.761C1796.81 424.761 1797.37 425.545 1798.11 426.114C1798.86 426.674 1799.77 426.955 1800.84 426.955C1801.96 426.955 1802.9 426.659 1803.65 426.068C1804.41 425.47 1804.97 424.667 1805.35 423.659C1805.74 422.644 1805.93 421.515 1805.93 420.273C1805.93 419.045 1805.74 417.939 1805.36 416.955C1804.99 415.962 1804.43 415.178 1803.67 414.602C1802.92 414.019 1801.98 413.727 1800.84 413.727C1799.75 413.727 1798.83 414.004 1798.09 414.557C1797.35 415.102 1796.79 415.867 1796.41 416.852C1796.03 417.83 1795.84 418.97 1795.84 420.273ZM1820.3 411.545V413.818H1811.25V411.545H1820.3ZM1813.89 407.364H1816.57V424C1816.57 424.758 1816.68 425.326 1816.9 425.705C1817.13 426.076 1817.41 426.326 1817.76 426.455C1818.12 426.576 1818.49 426.636 1818.89 426.636C1819.18 426.636 1819.42 426.621 1819.61 426.591C1819.8 426.553 1819.95 426.523 1820.07 426.5L1820.61 428.909C1820.43 428.977 1820.18 429.045 1819.85 429.114C1819.53 429.189 1819.11 429.227 1818.61 429.227C1817.86 429.227 1817.11 429.064 1816.39 428.739C1815.67 428.413 1815.07 427.917 1814.59 427.25C1814.12 426.583 1813.89 425.742 1813.89 424.727V407.364ZM1826.06 435.545C1825.6 435.545 1825.2 435.508 1824.84 435.432C1824.48 435.364 1824.24 435.295 1824.1 435.227L1824.78 432.864C1825.44 433.03 1826.01 433.091 1826.51 433.045C1827.01 433 1827.45 432.777 1827.84 432.375C1828.23 431.981 1828.59 431.341 1828.92 430.455L1829.42 429.091L1822.97 411.545H1825.88L1830.69 425.455H1830.88L1835.69 411.545H1838.6L1831.19 431.545C1830.86 432.447 1830.45 433.193 1829.95 433.784C1829.46 434.383 1828.89 434.826 1828.24 435.114C1827.59 435.402 1826.87 435.545 1826.06 435.545Z" fill="white"/>
<defs>
<filter id="filter0_d_0_1" x="60" y="640" width="328" height="200" filterUnits="userSpaceOnUse" color-interpolation-filters="sRGB">
<feFlood flood-opacity="0" result="BackgroundImageFix"/>
<feColorMatrix in="SourceAlpha" type="matrix" values="0 0 0 0 0 0 0 0 0 0 0 0 0 0 0 0 0 0 127 0" result="hardAlpha"/>
<feOffset dy="4"/>
<feGaussianBlur stdDeviation="2"/>
<feComposite in2="hardAlpha" operator="out"/>
<feColorMatrix type="matrix" values="0 0 0 0 0 0 0 0 0 0 0 0 0 0 0 0 0 0 0.25 0"/>
<feBlend mode="normal" in2="BackgroundImageFix" result="effect1_dropShadow_0_1"/>
<feBlend mode="normal" in="SourceGraphic" in2="effect1_dropShadow_0_1" result="shape"/>
</filter>
<filter id="filter1_d_0_1" x="892" y="640" width="328" height="200" filterUnits="userSpaceOnUse" color-interpolation-filters="sRGB">
<feFlood flood-opacity="0" result="BackgroundImageFix"/>
<feColorMatrix in="SourceAlpha" type="matrix" values="0 0 0 0 0 0 0 0 0 0 0 0 0 0 0 0 0 0 127 0" result="hardAlpha"/>
<feOffset dy="4"/>
<feGaussianBlur stdDeviation="2"/>
<feComposite in2="hardAlpha" operator="out"/>
<feColorMatrix type="matrix" values="0 0 0 0 0 0 0 0 0 0 0 0 0 0 0 0 0 0 0.25 0"/>
<feBlend mode="normal" in2="BackgroundImageFix" result="effect1_dropShadow_0_1"/>
<feBlend mode="normal" in="SourceGraphic" in2="effect1_dropShadow_0_1" result="shape"/>
</filter>
<filter id="filter2_d_0_1" x="60" y="321" width="328" height="200" filterUnits="userSpaceOnUse" color-interpolation-filters="sRGB">
<feFlood flood-opacity="0" result="BackgroundImageFix"/>
<feColorMatrix in="SourceAlpha" type="matrix" values="0 0 0 0 0 0 0 0 0 0 0 0 0 0 0 0 0 0 127 0" result="hardAlpha"/>
<feOffset dy="4"/>
<feGaussianBlur stdDeviation="2"/>
<feComposite in2="hardAlpha" operator="out"/>
<feColorMatrix type="matrix" values="0 0 0 0 0 0 0 0 0 0 0 0 0 0 0 0 0 0 0.25 0"/>
<feBlend mode="normal" in2="BackgroundImageFix" result="effect1_dropShadow_0_1"/>
<feBlend mode="normal" in="SourceGraphic" in2="effect1_dropShadow_0_1" result="shape"/>
</filter>
<filter id="filter3_d_0_1" x="892" y="320" width="328" height="200" filterUnits="userSpaceOnUse" color-interpolation-filters="sRGB">
<feFlood flood-opacity="0" result="BackgroundImageFix"/>
<feColorMatrix in="SourceAlpha" type="matrix" values="0 0 0 0 0 0 0 0 0 0 0 0 0 0 0 0 0 0 127 0" result="hardAlpha"/>
<feOffset dy="4"/>
<feGaussianBlur stdDeviation="2"/>
<feComposite in2="hardAlpha" operator="out"/>
<feColorMatrix type="matrix" values="0 0 0 0 0 0 0 0 0 0 0 0 0 0 0 0 0 0 0.25 0"/>
<feBlend mode="normal" in2="BackgroundImageFix" result="effect1_dropShadow_0_1"/>
<feBlend mode="normal" in="SourceGraphic" in2="effect1_dropShadow_0_1" result="shape"/>
</filter>
<filter id="filter4_d_0_1" x="380" y="320" width="328" height="200" filterUnits="userSpaceOnUse" color-interpolation-filters="sRGB">
<feFlood flood-opacity="0" result="BackgroundImageFix"/>
<feColorMatrix in="SourceAlpha" type="matrix" values="0 0 0 0 0 0 0 0 0 0 0 0 0 0 0 0 0 0 127 0" result="hardAlpha"/>
<feOffset dy="4"/>
<feGaussianBlur stdDeviation="2"/>
<feComposite in2="hardAlpha" operator="out"/>
<feColorMatrix type="matrix" values="0 0 0 0 0 0 0 0 0 0 0 0 0 0 0 0 0 0 0.25 0"/>
<feBlend mode="normal" in2="BackgroundImageFix" result="effect1_dropShadow_0_1"/>
<feBlend mode="normal" in="SourceGraphic" in2="effect1_dropShadow_0_1" result="shape"/>
</filter>
<filter id="filter5_d_0_1" x="1212" y="319" width="328" height="200" filterUnits="userSpaceOnUse" color-interpolation-filters="sRGB">
<feFlood flood-opacity="0" result="BackgroundImageFix"/>
<feColorMatrix in="SourceAlpha" type="matrix" values="0 0 0 0 0 0 0 0 0 0 0 0 0 0 0 0 0 0 127 0" result="hardAlpha"/>
<feOffset dy="4"/>
<feGaussianBlur stdDeviation="2"/>
<feComposite in2="hardAlpha" operator="out"/>
<feColorMatrix type="matrix" values="0 0 0 0 0 0 0 0 0 0 0 0 0 0 0 0 0 0 0.25 0"/>
<feBlend mode="normal" in2="BackgroundImageFix" result="effect1_dropShadow_0_1"/>
<feBlend mode="normal" in="SourceGraphic" in2="effect1_dropShadow_0_1" result="shape"/>
</filter>
</defs>
</svg>
